<mxfile host="app.diagrams.net" modified="2023-03-27T18:47:05.092Z" agent="Mozilla/5.0 (Windows NT 10.0; Win64; x64) AppleWebKit/537.36 (KHTML, like Gecko) Chrome/111.0.0.0 Safari/537.36" etag="Xwrc8Z9LULLLefQeM4F0" version="21.1.1" type="device">
  <diagram name="Page-1" id="uKpaWvmUeIAZyDd-qZt6">
    <mxGraphModel dx="1257" dy="746" grid="1" gridSize="10" guides="1" tooltips="1" connect="1" arrows="1" fold="1" page="1" pageScale="1" pageWidth="850" pageHeight="1100" math="0" shadow="0">
      <root>
        <mxCell id="0" />
        <mxCell id="1" parent="0" />
        <mxCell id="Tfeqr45VUfmXHqIMfcy5-3" style="edgeStyle=orthogonalEdgeStyle;rounded=0;orthogonalLoop=1;jettySize=auto;html=1;entryX=0;entryY=0.5;entryDx=0;entryDy=0;" edge="1" parent="1" source="Tfeqr45VUfmXHqIMfcy5-1" target="Tfeqr45VUfmXHqIMfcy5-2">
          <mxGeometry relative="1" as="geometry" />
        </mxCell>
        <mxCell id="Tfeqr45VUfmXHqIMfcy5-4" value="Input Data Kelas" style="edgeLabel;html=1;align=center;verticalAlign=middle;resizable=0;points=[];" vertex="1" connectable="0" parent="Tfeqr45VUfmXHqIMfcy5-3">
          <mxGeometry x="-0.2444" y="-1" relative="1" as="geometry">
            <mxPoint x="13" y="-16" as="offset" />
          </mxGeometry>
        </mxCell>
        <mxCell id="Tfeqr45VUfmXHqIMfcy5-13" style="edgeStyle=orthogonalEdgeStyle;rounded=0;orthogonalLoop=1;jettySize=auto;html=1;entryX=0;entryY=0.5;entryDx=0;entryDy=0;" edge="1" parent="1" source="Tfeqr45VUfmXHqIMfcy5-1" target="Tfeqr45VUfmXHqIMfcy5-10">
          <mxGeometry relative="1" as="geometry">
            <Array as="points">
              <mxPoint x="230" y="220" />
            </Array>
          </mxGeometry>
        </mxCell>
        <mxCell id="Tfeqr45VUfmXHqIMfcy5-14" value="Input data Siswa" style="edgeLabel;html=1;align=center;verticalAlign=middle;resizable=0;points=[];" vertex="1" connectable="0" parent="Tfeqr45VUfmXHqIMfcy5-13">
          <mxGeometry x="0.2802" y="-2" relative="1" as="geometry">
            <mxPoint x="12" y="-17" as="offset" />
          </mxGeometry>
        </mxCell>
        <mxCell id="Tfeqr45VUfmXHqIMfcy5-24" style="edgeStyle=orthogonalEdgeStyle;rounded=0;orthogonalLoop=1;jettySize=auto;html=1;entryX=0;entryY=0.444;entryDx=0;entryDy=0;entryPerimeter=0;" edge="1" parent="1" source="Tfeqr45VUfmXHqIMfcy5-1" target="Tfeqr45VUfmXHqIMfcy5-18">
          <mxGeometry relative="1" as="geometry">
            <mxPoint x="390" y="350" as="targetPoint" />
            <Array as="points">
              <mxPoint x="230" y="220" />
              <mxPoint x="370" y="220" />
              <mxPoint x="370" y="350" />
            </Array>
          </mxGeometry>
        </mxCell>
        <mxCell id="Tfeqr45VUfmXHqIMfcy5-25" value="Input data SPP" style="edgeLabel;html=1;align=center;verticalAlign=middle;resizable=0;points=[];" vertex="1" connectable="0" parent="Tfeqr45VUfmXHqIMfcy5-24">
          <mxGeometry x="0.2715" relative="1" as="geometry">
            <mxPoint y="47" as="offset" />
          </mxGeometry>
        </mxCell>
        <mxCell id="Tfeqr45VUfmXHqIMfcy5-26" style="edgeStyle=orthogonalEdgeStyle;rounded=0;orthogonalLoop=1;jettySize=auto;html=1;entryX=0;entryY=0.5;entryDx=0;entryDy=0;" edge="1" parent="1" source="Tfeqr45VUfmXHqIMfcy5-1" target="Tfeqr45VUfmXHqIMfcy5-28">
          <mxGeometry relative="1" as="geometry">
            <mxPoint x="380" y="490" as="targetPoint" />
            <Array as="points">
              <mxPoint x="230" y="485" />
            </Array>
          </mxGeometry>
        </mxCell>
        <mxCell id="Tfeqr45VUfmXHqIMfcy5-29" value="Input Data Pembayaran" style="edgeLabel;html=1;align=center;verticalAlign=middle;resizable=0;points=[];" vertex="1" connectable="0" parent="Tfeqr45VUfmXHqIMfcy5-26">
          <mxGeometry x="0.5649" relative="1" as="geometry">
            <mxPoint x="24" y="-15" as="offset" />
          </mxGeometry>
        </mxCell>
        <mxCell id="Tfeqr45VUfmXHqIMfcy5-47" style="edgeStyle=orthogonalEdgeStyle;rounded=0;orthogonalLoop=1;jettySize=auto;html=1;entryX=0.5;entryY=0;entryDx=0;entryDy=0;" edge="1" parent="1" source="Tfeqr45VUfmXHqIMfcy5-1" target="Tfeqr45VUfmXHqIMfcy5-46">
          <mxGeometry relative="1" as="geometry" />
        </mxCell>
        <mxCell id="Tfeqr45VUfmXHqIMfcy5-48" value="Input Data Petugas" style="edgeLabel;html=1;align=center;verticalAlign=middle;resizable=0;points=[];" vertex="1" connectable="0" parent="Tfeqr45VUfmXHqIMfcy5-47">
          <mxGeometry x="-0.0968" y="4" relative="1" as="geometry">
            <mxPoint x="11" y="-19" as="offset" />
          </mxGeometry>
        </mxCell>
        <mxCell id="Tfeqr45VUfmXHqIMfcy5-1" value="Admin" style="rounded=0;whiteSpace=wrap;html=1;" vertex="1" parent="1">
          <mxGeometry x="170" y="55" width="120" height="60" as="geometry" />
        </mxCell>
        <mxCell id="Tfeqr45VUfmXHqIMfcy5-7" style="edgeStyle=orthogonalEdgeStyle;rounded=0;orthogonalLoop=1;jettySize=auto;html=1;entryX=0;entryY=0.5;entryDx=0;entryDy=0;" edge="1" parent="1" source="Tfeqr45VUfmXHqIMfcy5-2" target="Tfeqr45VUfmXHqIMfcy5-6">
          <mxGeometry relative="1" as="geometry" />
        </mxCell>
        <mxCell id="Tfeqr45VUfmXHqIMfcy5-8" value="Rekam Data" style="edgeLabel;html=1;align=center;verticalAlign=middle;resizable=0;points=[];" vertex="1" connectable="0" parent="Tfeqr45VUfmXHqIMfcy5-7">
          <mxGeometry x="-0.1714" y="-1" relative="1" as="geometry">
            <mxPoint x="2" y="-16" as="offset" />
          </mxGeometry>
        </mxCell>
        <mxCell id="Tfeqr45VUfmXHqIMfcy5-2" value="1&lt;br&gt;proses Data Kelas" style="ellipse;whiteSpace=wrap;html=1;aspect=fixed;" vertex="1" parent="1">
          <mxGeometry x="410" y="40" width="90" height="90" as="geometry" />
        </mxCell>
        <mxCell id="Tfeqr45VUfmXHqIMfcy5-11" style="edgeStyle=orthogonalEdgeStyle;rounded=0;orthogonalLoop=1;jettySize=auto;html=1;entryX=0.5;entryY=0;entryDx=0;entryDy=0;" edge="1" parent="1" source="Tfeqr45VUfmXHqIMfcy5-6" target="Tfeqr45VUfmXHqIMfcy5-10">
          <mxGeometry relative="1" as="geometry">
            <mxPoint x="530" y="170" as="targetPoint" />
            <Array as="points">
              <mxPoint x="695" y="160" />
              <mxPoint x="455" y="160" />
            </Array>
          </mxGeometry>
        </mxCell>
        <mxCell id="Tfeqr45VUfmXHqIMfcy5-12" value="Data Kelas" style="edgeLabel;html=1;align=center;verticalAlign=middle;resizable=0;points=[];" vertex="1" connectable="0" parent="Tfeqr45VUfmXHqIMfcy5-11">
          <mxGeometry x="0.0921" y="1" relative="1" as="geometry">
            <mxPoint y="-11" as="offset" />
          </mxGeometry>
        </mxCell>
        <mxCell id="Tfeqr45VUfmXHqIMfcy5-6" value="tb_kelas" style="shape=internalStorage;whiteSpace=wrap;html=1;backgroundOutline=1;" vertex="1" parent="1">
          <mxGeometry x="640" y="45" width="110" height="80" as="geometry" />
        </mxCell>
        <mxCell id="Tfeqr45VUfmXHqIMfcy5-16" style="edgeStyle=orthogonalEdgeStyle;rounded=0;orthogonalLoop=1;jettySize=auto;html=1;entryX=0;entryY=0.5;entryDx=0;entryDy=0;" edge="1" parent="1" source="Tfeqr45VUfmXHqIMfcy5-10" target="Tfeqr45VUfmXHqIMfcy5-15">
          <mxGeometry relative="1" as="geometry">
            <Array as="points">
              <mxPoint x="640" y="220" />
            </Array>
          </mxGeometry>
        </mxCell>
        <mxCell id="Tfeqr45VUfmXHqIMfcy5-17" value="Rekam Data" style="edgeLabel;html=1;align=center;verticalAlign=middle;resizable=0;points=[];" vertex="1" connectable="0" parent="Tfeqr45VUfmXHqIMfcy5-16">
          <mxGeometry x="-0.2429" y="-2" relative="1" as="geometry">
            <mxPoint x="7" y="-17" as="offset" />
          </mxGeometry>
        </mxCell>
        <mxCell id="Tfeqr45VUfmXHqIMfcy5-10" value="2&lt;br&gt;proses Data Siswa" style="ellipse;whiteSpace=wrap;html=1;aspect=fixed;" vertex="1" parent="1">
          <mxGeometry x="410" y="175" width="90" height="90" as="geometry" />
        </mxCell>
        <mxCell id="Tfeqr45VUfmXHqIMfcy5-19" style="edgeStyle=orthogonalEdgeStyle;rounded=0;orthogonalLoop=1;jettySize=auto;html=1;entryX=0.5;entryY=0;entryDx=0;entryDy=0;" edge="1" parent="1" source="Tfeqr45VUfmXHqIMfcy5-15" target="Tfeqr45VUfmXHqIMfcy5-18">
          <mxGeometry relative="1" as="geometry">
            <Array as="points">
              <mxPoint x="695" y="280" />
              <mxPoint x="455" y="280" />
            </Array>
          </mxGeometry>
        </mxCell>
        <mxCell id="Tfeqr45VUfmXHqIMfcy5-22" value="Data Siswa" style="edgeLabel;html=1;align=center;verticalAlign=middle;resizable=0;points=[];" vertex="1" connectable="0" parent="Tfeqr45VUfmXHqIMfcy5-19">
          <mxGeometry x="0.1719" relative="1" as="geometry">
            <mxPoint x="17" y="-10" as="offset" />
          </mxGeometry>
        </mxCell>
        <mxCell id="Tfeqr45VUfmXHqIMfcy5-44" style="edgeStyle=orthogonalEdgeStyle;rounded=0;orthogonalLoop=1;jettySize=auto;html=1;entryX=1;entryY=0.5;entryDx=0;entryDy=0;" edge="1" parent="1" source="Tfeqr45VUfmXHqIMfcy5-15" target="Tfeqr45VUfmXHqIMfcy5-41">
          <mxGeometry relative="1" as="geometry">
            <Array as="points">
              <mxPoint x="800" y="220" />
              <mxPoint x="800" y="605" />
            </Array>
          </mxGeometry>
        </mxCell>
        <mxCell id="Tfeqr45VUfmXHqIMfcy5-45" value="Data Siswa" style="edgeLabel;html=1;align=center;verticalAlign=middle;resizable=0;points=[];" vertex="1" connectable="0" parent="Tfeqr45VUfmXHqIMfcy5-44">
          <mxGeometry x="0.5463" y="1" relative="1" as="geometry">
            <mxPoint y="-16" as="offset" />
          </mxGeometry>
        </mxCell>
        <mxCell id="Tfeqr45VUfmXHqIMfcy5-15" value="tb_siswa" style="shape=internalStorage;whiteSpace=wrap;html=1;backgroundOutline=1;" vertex="1" parent="1">
          <mxGeometry x="640" y="180" width="110" height="80" as="geometry" />
        </mxCell>
        <mxCell id="Tfeqr45VUfmXHqIMfcy5-31" style="edgeStyle=orthogonalEdgeStyle;rounded=0;orthogonalLoop=1;jettySize=auto;html=1;entryX=-0.009;entryY=0.6;entryDx=0;entryDy=0;entryPerimeter=0;" edge="1" parent="1" source="Tfeqr45VUfmXHqIMfcy5-18" target="Tfeqr45VUfmXHqIMfcy5-30">
          <mxGeometry relative="1" as="geometry">
            <Array as="points">
              <mxPoint x="540" y="358" />
              <mxPoint x="540" y="358" />
            </Array>
          </mxGeometry>
        </mxCell>
        <mxCell id="Tfeqr45VUfmXHqIMfcy5-32" value="Rekam Data" style="edgeLabel;html=1;align=center;verticalAlign=middle;resizable=0;points=[];" vertex="1" connectable="0" parent="Tfeqr45VUfmXHqIMfcy5-31">
          <mxGeometry x="-0.1622" y="1" relative="1" as="geometry">
            <mxPoint x="12" y="-7" as="offset" />
          </mxGeometry>
        </mxCell>
        <mxCell id="Tfeqr45VUfmXHqIMfcy5-18" value="3&lt;br&gt;proses Data SPP" style="ellipse;whiteSpace=wrap;html=1;aspect=fixed;" vertex="1" parent="1">
          <mxGeometry x="410" y="310" width="90" height="90" as="geometry" />
        </mxCell>
        <mxCell id="Tfeqr45VUfmXHqIMfcy5-34" style="edgeStyle=orthogonalEdgeStyle;rounded=0;orthogonalLoop=1;jettySize=auto;html=1;entryX=0.011;entryY=0.573;entryDx=0;entryDy=0;entryPerimeter=0;" edge="1" parent="1" source="Tfeqr45VUfmXHqIMfcy5-28" target="Tfeqr45VUfmXHqIMfcy5-33">
          <mxGeometry relative="1" as="geometry" />
        </mxCell>
        <mxCell id="Tfeqr45VUfmXHqIMfcy5-35" value="Rekam Data" style="edgeLabel;html=1;align=center;verticalAlign=middle;resizable=0;points=[];" vertex="1" connectable="0" parent="Tfeqr45VUfmXHqIMfcy5-34">
          <mxGeometry x="-0.3382" y="1" relative="1" as="geometry">
            <mxPoint x="13" y="-14" as="offset" />
          </mxGeometry>
        </mxCell>
        <mxCell id="Tfeqr45VUfmXHqIMfcy5-28" value="4&lt;br&gt;proses Data Pembayaran" style="ellipse;whiteSpace=wrap;html=1;aspect=fixed;" vertex="1" parent="1">
          <mxGeometry x="410" y="440" width="90" height="90" as="geometry" />
        </mxCell>
        <mxCell id="Tfeqr45VUfmXHqIMfcy5-36" style="edgeStyle=orthogonalEdgeStyle;rounded=0;orthogonalLoop=1;jettySize=auto;html=1;" edge="1" parent="1" source="Tfeqr45VUfmXHqIMfcy5-30" target="Tfeqr45VUfmXHqIMfcy5-28">
          <mxGeometry relative="1" as="geometry">
            <Array as="points">
              <mxPoint x="695" y="410" />
              <mxPoint x="455" y="410" />
            </Array>
          </mxGeometry>
        </mxCell>
        <mxCell id="Tfeqr45VUfmXHqIMfcy5-37" value="Data SPP" style="edgeLabel;html=1;align=center;verticalAlign=middle;resizable=0;points=[];" vertex="1" connectable="0" parent="Tfeqr45VUfmXHqIMfcy5-36">
          <mxGeometry x="0.094" relative="1" as="geometry">
            <mxPoint y="-10" as="offset" />
          </mxGeometry>
        </mxCell>
        <mxCell id="Tfeqr45VUfmXHqIMfcy5-30" value="tb_spp" style="shape=internalStorage;whiteSpace=wrap;html=1;backgroundOutline=1;" vertex="1" parent="1">
          <mxGeometry x="640" y="310" width="110" height="80" as="geometry" />
        </mxCell>
        <mxCell id="Tfeqr45VUfmXHqIMfcy5-42" style="edgeStyle=orthogonalEdgeStyle;rounded=0;orthogonalLoop=1;jettySize=auto;html=1;" edge="1" parent="1" source="Tfeqr45VUfmXHqIMfcy5-33" target="Tfeqr45VUfmXHqIMfcy5-41">
          <mxGeometry relative="1" as="geometry">
            <Array as="points">
              <mxPoint x="695" y="540" />
              <mxPoint x="455" y="540" />
            </Array>
          </mxGeometry>
        </mxCell>
        <mxCell id="Tfeqr45VUfmXHqIMfcy5-43" value="Data Pembayaran" style="edgeLabel;html=1;align=center;verticalAlign=middle;resizable=0;points=[];" vertex="1" connectable="0" parent="Tfeqr45VUfmXHqIMfcy5-42">
          <mxGeometry x="0.1429" y="1" relative="1" as="geometry">
            <mxPoint x="5" y="-11" as="offset" />
          </mxGeometry>
        </mxCell>
        <mxCell id="Tfeqr45VUfmXHqIMfcy5-33" value="&amp;nbsp; &amp;nbsp; &amp;nbsp; tb_pembayaran" style="shape=internalStorage;whiteSpace=wrap;html=1;backgroundOutline=1;" vertex="1" parent="1">
          <mxGeometry x="640" y="440" width="110" height="80" as="geometry" />
        </mxCell>
        <mxCell id="Tfeqr45VUfmXHqIMfcy5-41" value="5&lt;br&gt;Laporan Data Pembayaran" style="ellipse;whiteSpace=wrap;html=1;aspect=fixed;" vertex="1" parent="1">
          <mxGeometry x="410" y="560" width="90" height="90" as="geometry" />
        </mxCell>
        <mxCell id="Tfeqr45VUfmXHqIMfcy5-50" style="edgeStyle=orthogonalEdgeStyle;rounded=0;orthogonalLoop=1;jettySize=auto;html=1;entryX=0.5;entryY=0;entryDx=0;entryDy=0;" edge="1" parent="1" source="Tfeqr45VUfmXHqIMfcy5-46" target="Tfeqr45VUfmXHqIMfcy5-49">
          <mxGeometry relative="1" as="geometry">
            <mxPoint x="90" y="270" as="targetPoint" />
          </mxGeometry>
        </mxCell>
        <mxCell id="Tfeqr45VUfmXHqIMfcy5-52" value="Rekam Data" style="edgeLabel;html=1;align=center;verticalAlign=middle;resizable=0;points=[];" vertex="1" connectable="0" parent="Tfeqr45VUfmXHqIMfcy5-50">
          <mxGeometry x="-0.2611" y="-1" relative="1" as="geometry">
            <mxPoint as="offset" />
          </mxGeometry>
        </mxCell>
        <mxCell id="Tfeqr45VUfmXHqIMfcy5-46" value="0&lt;br&gt;proses Data Petugas" style="ellipse;whiteSpace=wrap;html=1;aspect=fixed;" vertex="1" parent="1">
          <mxGeometry x="45" y="140" width="90" height="90" as="geometry" />
        </mxCell>
        <mxCell id="Tfeqr45VUfmXHqIMfcy5-54" style="edgeStyle=orthogonalEdgeStyle;rounded=0;orthogonalLoop=1;jettySize=auto;html=1;entryX=0.5;entryY=0;entryDx=0;entryDy=0;" edge="1" parent="1" source="Tfeqr45VUfmXHqIMfcy5-49" target="Tfeqr45VUfmXHqIMfcy5-53">
          <mxGeometry relative="1" as="geometry">
            <mxPoint x="90" y="430" as="targetPoint" />
          </mxGeometry>
        </mxCell>
        <mxCell id="Tfeqr45VUfmXHqIMfcy5-55" value="Data Petugas" style="edgeLabel;html=1;align=center;verticalAlign=middle;resizable=0;points=[];" vertex="1" connectable="0" parent="Tfeqr45VUfmXHqIMfcy5-54">
          <mxGeometry x="-0.2152" relative="1" as="geometry">
            <mxPoint as="offset" />
          </mxGeometry>
        </mxCell>
        <mxCell id="Tfeqr45VUfmXHqIMfcy5-49" value="&amp;nbsp; tb_Petugas" style="shape=internalStorage;whiteSpace=wrap;html=1;backgroundOutline=1;" vertex="1" parent="1">
          <mxGeometry x="35" y="300" width="110" height="80" as="geometry" />
        </mxCell>
        <mxCell id="Tfeqr45VUfmXHqIMfcy5-56" style="edgeStyle=orthogonalEdgeStyle;rounded=0;orthogonalLoop=1;jettySize=auto;html=1;entryX=0;entryY=0.5;entryDx=0;entryDy=0;" edge="1" parent="1" source="Tfeqr45VUfmXHqIMfcy5-53" target="Tfeqr45VUfmXHqIMfcy5-28">
          <mxGeometry relative="1" as="geometry" />
        </mxCell>
        <mxCell id="Tfeqr45VUfmXHqIMfcy5-53" value="Petugas" style="rounded=0;whiteSpace=wrap;html=1;" vertex="1" parent="1">
          <mxGeometry x="30" y="455" width="120" height="60" as="geometry" />
        </mxCell>
      </root>
    </mxGraphModel>
  </diagram>
</mxfile>
